/* XPM */
static char *_aee1050d0a14a46e5b9bc3d7de734d5up2y6OQo5m13cAI1[] = {
/* columns rows colors chars-per-pixel */
"64 96 150 2 ",
"   c None",
".  c #161B29",
"X  c #1A1E2C",
"o  c #1D222E",
"O  c #222128",
"+  c #392D27",
"@  c #33272C",
"#  c #37292C",
"$  c #222732",
"%  c #262B36",
"&  c #2A2C35",
"*  c #2A2E38",
"=  c #352E36",
"-  c #3C2E33",
";  c #372F38",
":  c #2C313A",
">  c #3C3436",
",  c #31353D",
"<  c #3A333B",
"1  c #34393F",
"2  c #3D393E",
"3  c #4C3929",
"4  c #4B3E30",
"5  c #433D3F",
"6  c #52413F",
"7  c #363B42",
"8  c #393E44",
"9  c #443C42",
"0  c #3C4146",
"q  c #3F434A",
"w  c #454145",
"e  c #41454C",
"r  c #454A4E",
"t  c #484F4F",
"y  c #574947",
"u  c #574B49",
"i  c #594C4A",
"p  c #5B554F",
"a  c #464A52",
"s  c #494D52",
"d  c #534C53",
"f  c #4D5255",
"g  c #4E5259",
"h  c #565057",
"j  c #595551",
"k  c #555B55",
"l  c #5C5A55",
"z  c #52555C",
"x  c #585559",
"c  c #555A5C",
"v  c #595E59",
"b  c #605752",
"n  c #625A55",
"m  c #645E59",
"M  c #5C625C",
"N  c #64635D",
"B  c #5B5E62",
"V  c #5F6464",
"C  c #5E6169",
"Z  c #626761",
"A  c #646A64",
"S  c #6A6C66",
"D  c #62656B",
"F  c #686368",
"G  c #65686B",
"H  c #6B6F69",
"J  c #736962",
"K  c #677067",
"L  c #687067",
"P  c #6D726B",
"I  c #6F796F",
"U  c #72746E",
"Y  c #70786F",
"T  c #6B6E72",
"R  c #726B7E",
"E  c #6C7170",
"W  c #757672",
"Q  c #797471",
"!  c #727A71",
"~  c #797C76",
"^  c #747579",
"/  c #777C79",
"(  c #7B7E7A",
")  c #81776E",
"_  c #807E7D",
"`  c #788077",
"'  c #7C817C",
"]  c #888175",
"[  c #81847E",
"{  c #82887E",
"}  c #797B80",
"|  c #7F8280",
" . c #838583",
".. c #858985",
"X. c #8A8A86",
"o. c #838488",
"O. c #8C8D8A",
"+. c #8D928B",
"@. c #91938E",
"#. c #8F9093",
"$. c #959692",
"%. c #969995",
"&. c #999A95",
"*. c #9C9D99",
"=. c #A09E9C",
"-. c #9BA098",
";. c #9DA19C",
":. c #A0A19C",
">. c #A3A09D",
",. c #A2A29E",
"<. c #A5A19F",
"1. c #A5A69F",
"2. c #A2A29F",
"3. c #A5A2A0",
"4. c #A6A2A0",
"5. c #A2A5A1",
"6. c #A1A6A0",
"7. c #A7A6A3",
"8. c #A7A7A4",
"9. c #A4A4A1",
"0. c #AAA7A5",
"q. c #A5A9A4",
"w. c #ABA8A5",
"e. c #A8ABA7",
"r. c #ABA9A6",
"t. c #ADA9A7",
"y. c #A8ACA6",
"u. c #A9A9A5",
"i. c #ADABA8",
"p. c #ADADA9",
"a. c #ADADAA",
"s. c #ACADA9",
"d. c #B6A6A5",
"f. c #B1AEAC",
"g. c #ACB0AA",
"h. c #B4B3AF",
"j. c #B1B1AE",
"k. c #BFB5AB",
"l. c #B5B2B0",
"z. c #B4B4B2",
"x. c #B4B6B2",
"c. c #B7B9B6",
"v. c #B9B8B5",
"b. c #BDBBBB",
"n. c #BDBDBB",
"m. c #C4B59F",
"M. c #C1C0BE",
"N. c #C5C4C3",
"B. c #CACAC8",
"V. c #D3D2D1",
/* pixels */
"                                                                                                                                ",
"                                                                                                                                ",
"                                                                                                                                ",
"                                                                                                                                ",
"                                                                                                                                ",
"                                                                                                                                ",
"                                                                                                                                ",
"                                                                                                                                ",
"                                                                                                                                ",
"                                                                                                                                ",
"                                                                                                                                ",
"                                                                                                                                ",
"                                                                                                                                ",
"                                                                                                                                ",
"                                                                                                                                ",
"                                            X.X.X.:.<.3.w.t.t.i.0.X.X.9 9 9 9 9 < <                                             ",
"                                    X.X.*.*.=.&.&.~ . ] &.*.:.a.h.&.U % w.9.X.U X.9 9 9 9 ;                                     ",
"                                d.a.w.1.{ t f E ' S S o ~ W ( ~ U ../ 8 5. .%. .U U U % g F w 9   X.                            ",
"                            k.f.l.i.-.+.o o @...~ W $ X...U U ~ W P H z  .A A !  .% % O.O.X.:.@.9 2 !                           ",
"                        k.=.X.$...~ ~ P $ a.~ U U o X.{ M M P H Z Z % 8 *.Z M U U % O.z. . . . .[ U X 2 ! ] J                   ",
"                    m.0.T . X I ! P U ' z $.U v v D ..M M M M Z P % g %.( v ~ ! : 7 $.A S U U ( U ' % 5.< < ! ! J               ",
"                X.&.b.T ` o X U P U (  .: P ! ! : S q G 8 % 1 8 , $ V 8 W W k , :.*.' P ! S U U P : w.&.U $.9 < = )             ",
"            X.3.f.*.y.' ~ % U k k k ! % X z G P q $.:.@.8.8.g % % a.&.7 % % e s $.v v ! ~ U Z % % } v.P ! ~ %.7 = = =           ",
"      X.$.X.^ O.{  .U ~ U s k c g % B a.O.%.( 8 U &.P P U ~ ..U 7 :.X.$. . .O...% % U v M P * % 9.9.U ! v v M 8 $.' : = =       ",
"    R 3.<./  .~ U U P ! : / ....U : c ~ ( ( W , % X.X.Z A Z A Z o g a.' U U ( ( ( % , U : : W W [ U A M k P 8  .+...g U O.h     ",
"Q $.i.T +.f G I U H W e c *.H Z M H : P P P U I I $ O.' ! ! U U o o O.r Z Z U U % %.*.^ U P % f 8 ( ! M U U s 5.P U , T 9.%.d = ",
"X.3.H { U ( r P P 7 , U ..! Z Z I A Z : ! ! ! w > O                       c U q , Z Z ! q.U o ;.( s U k 8 *.:.A P W ' #.&.U ~ ; ",
"G @.! I ( ! ! . . 0 8 7 % Z P P A P H : 0 2 +                                   x p ! ! Z ! o O.&.o.q W T X.U N U ! e $.( U U U ",
"r P Z ( / S U z +.&.! I S % : A U U U % 4                                             s t ! $ 5.X./ z f W A f q e c M.&.( ' U U ",
"S M ' ' P M s 5.%...! A U ! , o $ &                                                       8 % %.%.! 7 c z f G ( G n.:.H H ' U ! ",
"M % * * q 8 , 2.W W ! W A o % f 3                                                             q.'  .( 7 ' n.j.a.%.0 ! P U ( U ! ",
"$ * ..' q 8 H B U W W Z M 7 %                                                                       l , 9.~ U U * ~ r q 0 0 e : ",
"G 8.O.+.M ! ~ ! 7 , , 0 8                                                                             l 5 l Z P % P ' M.v.M.x.;.",
" .O.S W A W W W v f * *                                                                                     w H A % v $.O...' ' ",
" .I ! Z ! U U W U A                                                                                           A Y %  .' S S Y ! ",
"f ! Z M U U U !                                                                                                 & ' q.M M H ! ! ",
"U U M Y S ! P                                                                                                     l ! V S A S I ",
"% M U S !                                                                                                           U % % 7 7 t ",
"% * , Z                                                                                                               l % : G r ",
"9.g :                                                                                                                   ( ;.' q.",
"W &.@.                                                                                                                  ! ! P P ",
"U U W                                                                                                                   ' ' H ! ",
"U W U                                                                                                                   ( ' H P ",
"U W W                                                                                                                   ' ' H I ",
"W U U                                                                                                                   / ( H ! ",
"W U P                                                                                                                   / ' H S ",
", , 1                                                                                                                   o a D 7 ",
"! +.W                                                                                                                   ( q.+.q ",
"n.e.U                                                                                                                   W U %.%.",
"M U S                                                                                                                   W ' Z U ",
"M W A                                                                                                                   ! ' Z U ",
"v ! m                                                                                                                   ! ( ( P ",
"v ! N                                                                                                                   W Z ( P ",
"v P N                                                                                                                   W  .A K ",
"H M N                                                                                                                   ,  .M ! ",
"* M N                                                                                                                   :.: : f ",
"s * =                                                                                                                   3.V.B.c.",
"n.n.Q                                                                                                                   W ' S P ",
"Y ;.w.                                                                                                                   .' S ! ",
"Y H U                                                                                                                    .Z S ! ",
"Y S W                                                                                                                    .Z Z ! ",
"Y A W                                                                                                                    .N Z ! ",
"L W !                                                                                                                    .H v ! ",
"L W !                                                                                                                    .H Z 8 ",
"P U Z                                                                                                                   e * * 8 ",
"I % :                                                                                                                   ..;.X.! ",
"% : N                                                                                                                   ..W X.;.",
"Y n.O.                                                                                                                  ..A S ! ",
"s.j.N                                                                                                                   ..! Z ! ",
"S U m                                                                                                                   ....Z ! ",
"! U n                                                                                                                   W ..Z ! ",
"! U b                                                                                                                   W ..Z S ",
"Z U i                                                                                                                   W ..S , ",
"Z U y                                                                                                                   W 8.a * ",
": ! u                                                                                                                   *.b.s.&.",
"T % @                                                                                                                   W ..S S ",
"s.W -                                                                                                                   W ..S ! ",
"v W 6                                                                                                                   W ..S ! ",
"v M #                                                                                                                   W  .A ! ",
"W M @                                                                                                                   W | P ! ",
"M M u                                                                                                                   W | Y ! ",
"M ! l                                                                                                                   W | A ! ",
"W M U                                                                                                                   W ..S I ",
"W v W                                                                                                                   W % % % ",
"U M %                                                                                                                   ~ q.O.S ",
"C % %                                                                                                                    .O.O.x.",
"g.a.S                                                                                                                   W  .H ! ",
"! W M                                                                                                                   W  .H ! ",
"! W l                                                                                                                   P  .P ! ",
"! ! j                                                                                                                   P  .H ! ",
"I U m                                                                                                                   U e : 0 ",
"q % &                                                                                                                   9.N.%.n.",
"s.j.&                                                                                                                   -.N.%.! ",
"! W l                                                                                                                   W  .Z ! ",
"! W M                                                                                                                   U Z I I ",
"! ! Z                                                                                                                   W Z Z ! "
};
