/* XPM */
static char *result[] = {
/* columns rows colors chars-per-pixel */
"128 128 25 1 ",
"  c #141319",
". c #32261C",
"X c #2C1E22",
"o c #292933",
"O c #403429",
"+ c #433331",
"@ c #4A3936",
"# c #413439",
"$ c #57493B",
"% c #34364A",
"& c #514145",
"* c #654F54",
"= c #6E6456",
"- c #414760",
"; c #515E78",
": c #836A6B",
"> c #6F8DA8",
", c #A68683",
"< c #A79E8D",
"1 c #BF9E94",
"2 c #B9B29F",
"3 c #DBD8C6",
"4 c #EDEBDB",
"5 c #FFFFF3",
"6 c None",
/* pixels */
"66666666666666666666666666666666666666666666666666666666666666666666666666666666666666666666666666666666666666666666666666666666",
"66666666666666666666666666666666666666666666666666666666666666666666666666666666666666666666666666666666666666666666666666666666",
"66666666666666666666666666666666666666666666666666666666666666666666666666666666666666666666666666666666666666666666666666666666",
"66666666666666666666666666666666666666666666666666666666666666666666666666666666666666666666666666666666666666666666666666666666",
"66666666666666666666666666666666666666666666666666666666666666666666666666666666666666666666666666666666666666666666666666666666",
"66666666666666666666666666666666666666666666666666666666666666666666666666666666666666666666666666666666666666666666666666666666",
"66666666666666666666666666666666666666666666666666666666666666666666666666666666666666666666666666666666666666666666666666666666",
"66666666666666666666666666666666666666666666666666666666666666666666666666666666666666666666666666666666666666666666666666666666",
"66666666666666666666666666666666666666666666666666666666666666666666666666666666666666666666666666666666666666666666666666666666",
"66666666666666666666666666666666666666666666666666666666666666666666666666666666666666666666666666666666666666666666666666666666",
"66666666666666666666666666666666666666666666666666666666666666666666666666666666666666666666666666666666666666666666666666666666",
"66666666666666666666666666666666666666666666666666666666666666666666666666666666666666666666666666666666666666666666666666666666",
"66666666666666666666666666666666666666666666666666666666666666666666666666666666666666666666666666666666666666666666666666666666",
"66666666666666666666666666666666666666666666666666666666666666666666666666666666666666666666666666666666666666666666666666666666",
"66666666666666666666666666666666666666666666666666666666666666666666666666666666666666666666666666666666666666666666666666666666",
"66666666666666666666666666666666666666666666666666666666666666666666666666666666666666666666666666666666666666666666666666666666",
"66666666666666666666666666666666666666666666666666666666666666666666666666666666666666666666666666666666666666666666666666666666",
"66666666666666666666666666666666666666666666666666666666666666666666666666666666666666666666666666666666666666666666666666666666",
"66666666666666666666666666666666666666666666666666666666666666666666666666666666666666666666666666666666666666666666666666666666",
"66666666666666666666666666666666666666666666666666666666666666666666666666666666666666666666666666666666666666666666666666666666",
"66666666666666666666666666666666666666666666666666666666666666666666666666666666666666666666666666666666666666666666666666666666",
"66666666666666666666666666666666666666666666666666666666666666666666666666666666666666666666666666666666666666666666666666666666",
"66666666666666666666666666666666666666666666666666666666666666666666666666666666666666666666666666666666666666666666666666666666",
"66666666666666666666666666666666666666666666666666666666666666666666666666666666666666666666666666666666666666666666666666666666",
"66666666666666666666666666666666666666666666666666666666666666666666666666666666666666666666666666666666666666666666666666666666",
"66666666666666666666666666666666666666666666666666666666666666666666666666666666666666666666666666666666666666666666666666666666",
"66666666666666666666666666666666666666666666666666666666666666666666666666666666666666666666666666666666666666666666666666666666",
"66666666666666666666666666666666666666666666666666666666666666666666666666666666666666666666666666666666666666666666666666666666",
"66666666666666666666666666666666666666666666666666666666666666666666666666666666666666666666666666666666666666666666666666666666",
"66666666666666666666666666666666666666666666666666666666666666666666666666666666666666666666666666666666666666666666666666666666",
"66666666666666666666666666666666666666666666666666666666666666666666666666666666666666666666666666666666666666666666666666666666",
"66666666666666666666666666666666666666666666666666666666666   666   666666666666666666666666666666666666666666666666666666666666",
"666666666666666666666666666666666666666666666666666666666  > 66666 >  6666666666666666666666666666666666666666666666666666666666",
"6666666666666666666666666666666666666666666666666666666  -> 6666666 >-  66666666666666666666666666666666666666666666666666666666",
"666666666666666666666666666666666666666666666666666666 ->> 666666666 >>- 6666666666666666666666666666666666666666666666666666666",
"66666666666666666666666666666666666666666666666666666 >>- 66666666666 ->> 666666666666666666666666666666666666666666666666666666",
"6666666666666666666666666666666666666666666666666666 >->> 66666666666 >>-> 66666666666666666666666666666666666666666666666666666",
"666666666666666666666666666666666666666666666666666 ->>o 6666666666666 o>>- 6666666666666666666666666666666666666666666666666666",
"666666666666666666666666666666666666666666666666666 o>;; 6666666666666 ;;>o 6666666666666666666666666666666666666666666666666666",
"66666666666666666666666666666666666666666666666666 ->oo 666666666666666 oo>- 666666666666666666666666666666666666666666666666666",
"66666666666666666666666666666666666666666666666666 ->;- 666666666666666 -;>- 666666666666666666666666666666666666666666666666666",
"6666666666666666666666666666666666666666666666666 -o;;- 666666666666666 -;;o- 66666666666666666666666666666666666666666666666666",
"6666666666666666666666666666666666666666666666666 -;ooo 666666666666666 ooo;- 66666666666666666666666666666666666666666666666666",
"6666666666666666666666666666666666666666666666666 -;;-- 666666666666666 --;;- 66666666666666666666666666666666666666666666666666",
"6666666666666666666666666666666666666666666666666 o;-- 66666666666666666 --;o 66666666666666666666666666666666666666666666666666",
"666666666666666666666666666666666666666666666666 %-ooo 66666666666666666 ooo-% 6666666666666666666666666666666666666666666666666",
"666666666666666666666666666666666666666666666666 %---- 666XXXXXXXXXXX666 ----% 6666666666666666666666666666666666666666666666666",
"666666666666666666666666666666666666666666666666 o%--% 6XX11111111111XX6 %--%o 6666666666666666666666666666666666666666666666666",
"66666666666666666666666666666666666666666666666   ooo-XX11,,,,,,,,,,,11XX-ooo   666666666666666666666666666666666666666666666666",
"666666666666666666666666666666666666666666666  > %-%XX11,,,,,,,,,,,,,,,11XX%-% >  6666666666666666666666666666666666666666666666",
"6666666666666666666666666666666666666666666  -> + %X11,,,,,,,,,,,,,,,,,,,11X% + >-  66666666666666666666666666666666666666666666",
"666666666666666666666666666666666666666666 ->; ++ X1,,,,...,,,.....,,,,,.,,1X ++ ;>- 6666666666666666666666666666666666666666666",
"66666666666666666666666666666666666666666 >>% +++X1,,,,.543.,.33333.,,,.4.,,1X+++ %>> 666666666666666666666666666666666666666666",
"6666666666666666666666666666666666666666 ->; 6++X1,,,,,:...2.3344433.,,.3..,,1X++6 ;>- 66666666666666666666666666666666666666666",
"666666666666666666666666666666666666666 >>%o ++X1,,,.....43.334454432..3332.,,1X++ o%>> 6666666666666666666666666666666666666666",
"66666666666666666666666666666666666666 ->;> 6+X:1,,.54322.2.234555432.322..*:,1:X+6 >;>- 666666666666666666666666666666666666666",
"66666666666666666666666666666666666666 >-;- ++X1,,,:........233454332.2<.*::,,,1X++ -;-> 666666666666666666666666666666666666666",
"6666666666666666666666666666666666666 >>>oo +X:1,,,,:*.<.55.<2334332<.<.*::,,,,1:X+ oo>>> 66666666666666666666666666666666666666",
"6666666666666666666666666666666666666 %;--% +X1,,,,...2.445.<OO333OO<...:,,,,,,,1X+ %--;% 66666666666666666666666666666666666666",
"666666666666666666666666666666666666 >>ooo +X:1,,,.432.2344.<O=O3O=O<.33.,,,,,,,1:X+ ooo>> 6666666666666666666666666666666666666",
"666666666666666666666666666666666666 >;;-% +X:1,,,:.....3322.2$2$2$2.4443.,,.,,,1:X+ %-;;> 6666666666666666666666666666666666666",
"66666666666666666666666666666666666 >%;-%o X:1,,,,,::*.$32OO2.23332.445443..4.,,,1:X o%-;%> 666666666666666666666666666666666666",
"66666666666666666666666666666666666 ;;ooo% X:1,,,,,,,:.34 =O22.232.34 5543.334.,,1:X %ooo;; 666666666666666666666666666666666666",
"6666666666666666666666666666666666 -;;---% X:1,,,,,,,.3$  $222.....23  443.223.,,1:X %---;;- 66666666666666666666666666666666666",
"666666666666666666666666666666666+ o;--%% +X:11,,,,,..3 > 222<<.<<<23 > 33..<2.,11:X+ %%--;o +6666666666666666666666666666666666",
"66666666666666666666666666666666++ -o%%%o X&*:1,,...34 > <.<<<<.<<<223 > O.*.2.,1:*&X o%%%o- ++666666666666666666666666666666666",
"66666666666666666666666666666666+ %--ooo% X&*:1,.5432. - .2....<.<<<$O - .*::.:,1:*&X %ooo--% +666666666666666666666666666666666",
"66666666666666666666666666666666+ o%---%% X&*:11:..2. >> 3.2<.22<..<2$ >> ::,:,11:*&X %%---%o +666666666666666666666666666666666",
"66666666666666666666666666666666+ %o%%%% +X&*::1,:.<. -> .32..32.**.23 >- :,,,,1::*&X+ %%%%o% +666666666666666666666666666666666",
"66666666666666666666666666666666+ %-oooo +X&**:11,:. >> *.3.*.32.*:.<23 >> ,,,11:**&X+ oooo-% +666666666666666666666666666666666",
"66666666666666666666666666666666+ %%-%-% +X#&*::1,,: -> :*.*:.42.*:*... >- ,,,1::*&#X+ %-%-%% +666666666666666666666666666666666",
"66666666666666666666666666666666++ %%%% +++X&**:11, >>% ::*::.42.*:::** %>> ,11:**&X+++ %%%% ++666666666666666666666666666666666",
"66666666666666666666666666666666+++    +@++X&&*::11 ->; ,,::.3532.::::: ;>- 11::*&&X+@++    +++666666666666666666666666666666666",
"666666666666666666666666666666666++++++@@@+X#&**:: ;>-% ,,,:.2..2.::,,, %->; ::**&#X@@@+++++++6666666666666666666666666666666666",
"6666666666666666666666666666666666++++++@+++X&&**: -;>; ,,,:*.**.*:,,,, ;>;- :**&&X++@+++++++66666666666666666666666666666666666",
"666666666666666666666666666666666666++++++++X#&** -o;;o 1,,,:*::*:,,,,1 o;;o- **&#X++++++++6666666666666666666666666666666666666",
"66666666666666666666666666666666666666666++++X&&* -;oo- 11,,,:,,:,,,,11 -oo;- *&&X++++666666666666666666666666666666666666666666",
"666666666666666666666666666666666666666666+++X#&& -;>;- :111,,,,,,,111: -;>;- &&#X+++6666666666666666666666666666666666666666666",
"666666666666666666666666666666666666666666++++X# -o-;;o :::111111111::: o;;-o- #X++++6666666666666666666666666666666666666666666",
"6666666666666666666666666666666666666666666++++X -;ooo- **:::::::::::** -ooo;- X++++66666666666666666666666666666666666666666666",
"66666666666666666666666666666666666666666666++++ -;;;;- *************** -;;;;- ++++666666666666666666666666666666666666666666666",
"666666666666666666666666666666666666666666666+++ o;;;-o &*************& o-;;;o +++6666666666666666666666666666666666666666666666",
"666666666666666666666666666666666666666666666++ -;oooo- #&&&*******&&&# -oooo;- ++6666666666666666666666666666666666666666666666",
"666666666666666666666666666666666666666666666++ %-;;;-% X##&&&&&&&&&##X %-;;;-% ++6666666666666666666666666666666666666666666666",
"666666666666666666666666666666666666666666666++ o----%o +XX#########XX+ o%----o ++6666666666666666666666666666666666666666666666",
"66666666666666666666666666666666666666666666+++ %ooooo% +++XXXXXXXXX+++ %ooooo% +++666666666666666666666666666666666666666666666",
"66666666666666666666666666666666666666666666+++ %-;---% +++++++++++++++ %---;-% +++666666666666666666666666666666666666666666666",
"66666666666666666666666666666666666666666666+++ o---%%o +++@++++++++@@+ o%%---o +++666666666666666666666666666666666666666666666",
"66666666666666666666666666666666666666666666+++ %ooooo% ++@@@++++++@@@@ %ooooo% +++666666666666666666666666666666666666666666666",
"66666666666666666666666666666666666666666666+++ %%---%% +++@+++++++@@@@ %%---%% +++666666666666666666666666666666666666666666666",
"66666666666666666666666666666666666666666666++++ %%-%% +++++++666+++@@++ %%-%% ++++666666666666666666666666666666666666666666666",
"66666666666666666666666666666666666666666666+++++ %%% +++++++66666+++++++ %%% +++++666666666666666666666666666666666666666666666",
"666666666666666666666666666666666666666666666+++++   +++++++6666666+++++++   +++++6666666666666666666666666666666666666666666666",
"6666666666666666666666666666666666666666666666+++++++++++++666666666+++++++++++++66666666666666666666666666666666666666666666666",
"66666666666666666666666666666666666666666666666+++++++++++66666666666+++++++++++666666666666666666666666666666666666666666666666",
"66666666666666666666666666666666666666666666666666++++++666666666666666++++++666666666666666666666666666666666666666666666666666",
"66666666666666666666666666666666666666666666666666666666666666666666666666666666666666666666666666666666666666666666666666666666",
"66666666666666666666666666666666666666666666666666666666666666666666666666666666666666666666666666666666666666666666666666666666",
"66666666666666666666666666666666666666666666666666666666666666666666666666666666666666666666666666666666666666666666666666666666",
"66666666666666666666666666666666666666666666666666666666666666666666666666666666666666666666666666666666666666666666666666666666",
"66666666666666666666666666666666666666666666666666666666666666666666666666666666666666666666666666666666666666666666666666666666",
"66666666666666666666666666666666666666666666666666666666666666666666666666666666666666666666666666666666666666666666666666666666",
"66666666666666666666666666666666666666666666666666666666666666666666666666666666666666666666666666666666666666666666666666666666",
"66666666666666666666666666666666666666666666666666666666666666666666666666666666666666666666666666666666666666666666666666666666",
"66666666666666666666666666666666666666666666666666666666666666666666666666666666666666666666666666666666666666666666666666666666",
"66666666666666666666666666666666666666666666666666666666666666666666666666666666666666666666666666666666666666666666666666666666",
"66666666666666666666666666666666666666666666666666666666666666666666666666666666666666666666666666666666666666666666666666666666",
"66666666666666666666666666666666666666666666666666666666666666666666666666666666666666666666666666666666666666666666666666666666",
"66666666666666666666666666666666666666666666666666666666666666666666666666666666666666666666666666666666666666666666666666666666",
"66666666666666666666666666666666666666666666666666666666666666666666666666666666666666666666666666666666666666666666666666666666",
"66666666666666666666666666666666666666666666666666666666666666666666666666666666666666666666666666666666666666666666666666666666",
"66666666666666666666666666666666666666666666666666666666666666666666666666666666666666666666666666666666666666666666666666666666",
"66666666666666666666666666666666666666666666666666666666666666666666666666666666666666666666666666666666666666666666666666666666",
"66666666666666666666666666666666666666666666666666666666666666666666666666666666666666666666666666666666666666666666666666666666",
"66666666666666666666666666666666666666666666666666666666666666666666666666666666666666666666666666666666666666666666666666666666",
"66666666666666666666666666666666666666666666666666666666666666666666666666666666666666666666666666666666666666666666666666666666",
"66666666666666666666666666666666666666666666666666666666666666666666666666666666666666666666666666666666666666666666666666666666",
"66666666666666666666666666666666666666666666666666666666666666666666666666666666666666666666666666666666666666666666666666666666",
"66666666666666666666666666666666666666666666666666666666666666666666666666666666666666666666666666666666666666666666666666666666",
"66666666666666666666666666666666666666666666666666666666666666666666666666666666666666666666666666666666666666666666666666666666",
"66666666666666666666666666666666666666666666666666666666666666666666666666666666666666666666666666666666666666666666666666666666",
"66666666666666666666666666666666666666666666666666666666666666666666666666666666666666666666666666666666666666666666666666666666",
"66666666666666666666666666666666666666666666666666666666666666666666666666666666666666666666666666666666666666666666666666666666",
"66666666666666666666666666666666666666666666666666666666666666666666666666666666666666666666666666666666666666666666666666666666",
"66666666666666666666666666666666666666666666666666666666666666666666666666666666666666666666666666666666666666666666666666666666",
"66666666666666666666666666666666666666666666666666666666666666666666666666666666666666666666666666666666666666666666666666666666",
"66666666666666666666666666666666666666666666666666666666666666666666666666666666666666666666666666666666666666666666666666666666",
"66666666666666666666666666666666666666666666666666666666666666666666666666666666666666666666666666666666666666666666666666666666"
};
