/* XPM */
static char *result[] = {
/* columns rows colors chars-per-pixel */
"128 128 51 1 ",
"  c #110D0D",
". c #191014",
"X c #1A1717",
"o c #1D1A1A",
"O c #250B1B",
"+ c #231A12",
"@ c #32261C",
"# c #1C1C23",
"$ c #1D1D24",
"% c #301021",
"& c #3B1526",
"* c #3A1527",
"= c #262323",
"- c #333232",
"; c #481A2C",
": c #5B2132",
"> c #443B30",
", c #403E3D",
"< c #7C303D",
"1 c #5A463B",
"2 c #52493D",
"3 c #624C3F",
"4 c #343745",
"5 c #544A47",
"6 c #5A5043",
"7 c #434859",
"8 c #645B4E",
"9 c #6E6355",
"0 c #6E6456",
"q c #4F576C",
"w c #7B7061",
"e c #696C73",
"r c #8D282A",
"t c #9C312A",
"y c #B14332",
"u c #CA5A3B",
"i c #A54748",
"p c #C3564B",
"a c #E37644",
"s c #8E8475",
"d c #6B7C93",
"f c #888E97",
"g c #A79E8D",
"h c #B9B29F",
"j c #849CB3",
"k c #99A3AA",
"l c #ABB7C1",
"z c #DBD8C6",
"x c #EDEBDB",
"c c #FFFFF3",
"v c None",
/* pixels */
"vvvvvvvvvvvvvvvvvvvvvvvvvvvvvvvvvvvvvvvvvvvvvvvvvvvvvvvvvvvvvvvvvvvvvvvvvvvvvvvvvvvvvvvvvvvvvvvvvvvvvvvvvvvvvvvvvvvvvvvvvvvvvvvv",
"vvvvvvvvvvvvvvvvvvvvvvvvvvvvvvvvvvvvvvvvvvvvvvvvvvvvvvvvvvvvvvvvvvvvvvvvvvvvvvvvvvvvvvvvvvvvvvvvvvvvvvvvvvvvvvvvvvvvvvvvvvvvvvvv",
"vvvvvvvvvvvvvvvvvvvvvvvvvvvvvvvvvvvvvvvvvvvvvvvvvvvvvvvvvvvvvvvvvvvvvvvvvvvvvvvvvvvvvvvvvvvvvvvvvvvvvvvvvvvvvvvvvvvvvvvvvvvvvvvv",
"vvvvvvvvvvvvvvvvvvvvvvvvvvvvvvvvvvvvvvvvvvvvvvvvvvvvvvvvvvvvvvvvvvvvvvvvvvvvvvvvvvvvvvvvvvvvvvvvvvvvvvvvvvvvvvvvvvvvvvvvvvvvvvvv",
"vvvvvvvvvvvvvvvvvvvvvvvvvvvvvvvvvvvvvvvvvvvvvvvvvvvvvvvvvvvvvvvvvvvvvvvvvvvvvvvvvvvvvvvvvvvvvvvvvvvvvvvvvvvvvvvvvvvvvvvvvvvvvvvv",
"vvvvvvvvvvvvvvvvvvvvvvvvvvvvvvvvvvvvvvvvvvvvvvvvvvvvvvvvvvvvvvvvvvvvvvvvvvvvvvvvvvvvvvvvvvvvvvvvvvvvvvvvvvvvvvvvvvvvvvvvvvvvvvvv",
"vvvvvvvvvvvvvvvvvvvvvvvvvvvvvvvvvvvvvvvvvvvvvvvvvvvvvvvvvvvvvvvvvvvvvvvvvvvvvvvvvvvvvvvvvvvvvvvvvvvvvvvvvvvvvvvvvvvvvvvvvvvvvvvv",
"vvvvvvvvvvvvvvvvvvvvvvvvvvvvvvvvvvvvvvvvvvvvvvvvvvvvvvvvvvvvvvvvvvvvvvvvvvvvvvvvvvvvvvvvvvvvvvvvvvvvvvvvvvvvvvvvvvvvvvvvvvvvvvvv",
"vvvvvvvvvvvvvvvvvvvvvvvvvvvvvvvvvvvvvvvvvvvvvvvvvvvvvvvvvvvvvvvvvvvvvvvvvvvvvvvvvvvvvvvvvvvvvvvvvvvvvvvvvvvvvvvvvvvvvvvvvvvvvvvv",
"vvvvvvvvvvvvvvvvvvvvvvvvvvvvvvvvvvvvvvvvvvvvvvvvvvvvvvvvvvvvvvvvvvvvvvvvvvvvvvvvvvvvvvvvvvvvvvvvvvvvvvvvvvvvvvvvvvvvvvvvvvvvvvvv",
"vvvvvvvvvvvvvvvvvvvvvvvvvvvvvvvvvvvvvvvvvvvvvvvvvvvvvvvvvvvvvvvvvvvvvvvvvvvvvvvvvvvvvvvvvvvvvvvvvvvvvvvvvvvvvvvvvvvvvvvvvvvvvvvv",
"vvvvvvvvvvvvvvvvvvvvvvvvvvvvvvvvvvvvvvvvvvvvvvvvvvvvvvvvvvvvvvvvvvvvvvvvvvvvvvvvvvvvvvvvvvvvvvvvvvvvvvvvvvvvvvvvvvvvvvvvvvvvvvvv",
"vvvvvvvvvvvvvvvvvvvvvvvvvvvvvvvvvvvvvvvvvvvvvvvvvvvvvvvvvvvvvvvvvvvvvvvvvvvvvvvvvvvvvvvvvvvvvvvvvvvvvvvvvvvvvvvvvvvvvvvvvvvvvvvv",
"vvvvvvvvvvvvvvvvvvvvvvvvvvvvvvvvvvvvvvvvvvvvvvvvvvvvvvvvvvvvvvvvvvvvvvvvvvvvvvvvvvvvvvvvvvvvvvvvvvvvvvvvvvvvvvvvvvvvvvvvvvvvvvvv",
"vvvvvvvvvvvvvvvvvvvvvvvvvvvvvvvvvvvvvvvvvvvvvvvvvvvvvvvvvvvvvvvvvvvvvvvvvvvvvvvvvvvvvvvvvvvvvvvvvvvvvvvvvvvvvvvvvvvvvvvvvvvvvvvv",
"vvvvvvvvvvvvvvvvvvvvvvvvvvvvvvvvvvvvvvvvvvvvvvvvvvvvvvvvvvvvvvvvvvvvvvvvvvvvvvvvvvvvvvvvvvvvvvvvvvvvvvvvvvvvvvvvvvvvvvvvvvvvvvvv",
"vvvvvvvvvvvvvvvvvvvvvvvvvvvvvvvvvvvvvvvvvvvvvvvvvvvvvvvvvvvvvvvvvvvvvvvvvvvvvvvvvvvvvvvvvvvvvvvvvvvvvvvvvvvvvvvvvvvvvvvvvvvvvvvv",
"vvvvvvvvvvvvvvvvvvvvvvvvvvvvvvvvvvvvvvvvvvvvvvvvvvvvvvvvvvvvvvvvvvvvvvvvvvvvvvvvvvvvvvvvvvvvvvvvvvvvvvvvvvvvvvvvvvvvvvvvvvvvvvvv",
"vvvvvvvvvvvvvvvvvvvvvvvvvvvvvvvvvvvvvvvvvvvvvvvvvvvvvvvvvvvvvvvvvvvvvvvvvvvvvvvvvvvvvvvvvvvvvvvvvvvvvvvvvvvvvvvvvvvvvvvvvvvvvvvv",
"vvvvvvvvvvvvvvvvvvvvvvvvvvvvvvvvvvvvvvvvvvvvvvvvvvvvvvvvvvvvvvvvvvvvvvvvvvvvvvvvvvvvvvvvvvvvvvvvvvvvvvvvvvvvvvvvvvvvvvvvvvvvvvvv",
"vvvvvvvvvvvvvvvvvvvvvvvvvvvvvvvvvvvvvvvvvvvvvvvvvvvvvvvvvvvvvvvvvvvvvvvvvvvvvvvvvvvvvvvvvvvvvvvvvvvvvvvvvvvvvvvvvvvvvvvvvvvvvvvv",
"vvvvvvvvvvvvvvvvvvvvvvvvvvvvvvvvvvvvvvvvvOOOOOOOOvvvvvvvvvvvvvvvvvvvvvvvOOOOOOOOvvvvvvvvvvvvvvvvvvvvvvvvvvvvvvvvvvvvvvvvvvvvvvvv",
"vvvvvvvvvvvvvvvvvvvvvvvvvvvvvvvvvvvvvvvOOi:piii:<OOvvvvvvvvvvvvvvvvvvvOO<:iiip:iOOvvvvvvvvvvvvvvvvvvvvvvvvvvvvvvvvvvvvvvvvvvvvvv",
"vvvvvvvvvvvvvvvvvvvvvvvvvvvvvvvvvvvvvOOpi:piii:pi<<OvvvvvvvvvvvvvvvvvO<<ip:iiip:ipOOvvvvvvvvvvvvvvvvvvvvvvvvvvvvvvvvvvvvvvvvvvvv",
"vvvvvvvvvvvvvvvvvvvvvvvvvvvvvvvvvvvOO<:ii:iii:pii::;OvvvvvvvvvvvvvvvO;::iip:iii:ii:<OOvvvvvvvvvvvvvvvvvvvvvvvvvvvvvvvvvvvvvvvvvv",
"vvvvvvvvvvvvvvvvvvvvvvvvvvvvvvvvvvOii:i<;i<<:iii:pii<Ovvvv@@@@@vvvvO<iip:iii:<<i;<i:iiOvvvvvvvvvvvvvvvvvvvvvvvvvvvvvvvvvvvvvvvvv",
"vvvvvvvvvvvvvvvvvvvvvvvvvvvvvvvvvO:i<;<<;<<;i<<:iii<:;Ov@@hzzzh@@vO;:<iii:<<i;<<;<<;<i:Ovvvvvvvvvvvvvvvvvvvvvvvvvvvvvvvvvvvvvvvv",
"vvvvvvvvvvvvvvvvvvvvvvvvvvvvvvvvO<;::;::;:<;<<:i<<<:<:@@hzzxxxzzh@@:<:<<<i:<<;<:;::;::;<Ovvvvvvvvvvvvvvvvvvvvvvvvvvvvvvvvvvvvvvv",
"vvvvvvvvvvvvvvvvvvvvvvvvvvvvvvvO;:;;OOOOOO:;:;<<<<:i<@hhzzxxcxxzzhh@<i:<<<<;:;:OOOOOO;;:;Ovvvvvvvvvvvvvvvvvvvvvvvvvvvvvvvvvvvvvv",
"vvvvvvvvvvvvvvvvvvvvvvvvvvvvvvO<;OOO&&%&%&OO:;:::;<<@hhzzxxxccxxzzhh@<<;:::;:OO&%&%&&OOO;<Ovvvvvvvvvvvvvvvvvvvvvvvvvvvvvvvvvvvvv",
"vvvvvvvvvvvvvvvvvvvvvvvvvvvvvvO:O;;&%&&%OOOOO;::;::@ghzzxxcxxxcxxzzhg@::;::;OOOOO%&&%&;;O:Ovvvvvvvvvvvvvvvvvvvvvvvvvvvvvvvvvvvvv",
"vvvvvvvvvvvvvvvvvvvvvvvvvvvvvO:O**:;&OOOvvvevO;;::@ghzzzxxxzzzxxxzzzhg@::;;OvvvvvOOO&;:**O:Ovvvvvvvvvvvvvvvvvvvvvvvvvvvvvvvvvvvv",
"vvvvvvvvvvvvvvvvvvvvvvvvvvvvvOO:::%;OevvevfvevO;:@ghhzzxzzzzzzzzzxzzhhg@:;OvvvvvvvvvO;%:::OOvvvvvvvvvvvvvvvvvvvvvvvvvvvvvvvvvvvv",
"vvvvvvvvvvvvvvvvvvvvvvvvvvvvvO::;;;OvvevffvvvfvO:@ghzzzzzzzsgszzzzzzzhg@:OvvvvvvvvvvvO;;;::Ovvvvvvvvvvvvvvvvvvvvvvvvvvvvvvvvvvvv",
"vvvvvvvvvvvvvvvvvvvvvvvvvvvvvO:;%%OvvvvfvvfvffvO@ghhzzzzhwsxcxswhzzzzhhg@OvvvvvvvvvvvvO%%;:Ovvvvvvvvvvvvvvvvvvvvvvvvvvvvvvvvvvvv",
"vvvvvvvvvvvvvvvvvvvvvvvvvvvvO:*%;OvevvffvfvfvvfO@ghhzzzhwxxzzzxxwhzzzhhg@OvvvvvvvvvvvvvO;%*:Ovvvvvvvvvvvvvvvvvvvvvvvvvvvvvvvvvvv",
"vvvvvvvvvvvvvvvvvvvvvvvvvvvvO*:;&Ovevfvvfvvfvfv@gghhhzh6xzrtttrzx6hzhhhgg@vvvvvvvvvvvvvO&;:*Ovvvvvvvvvvvvvvvvvvvvvvvvvvvvvvvvvvv",
"vvvvvvvvvvvvvvvvvvvvvvvvvvvvO:;;Ovvvfvvvfvvvfvv@sghhhh6zzrty.ytrzz6hhhhgs@vvvvvvvvvvvvvvO;;:Ovvvvvvvvvvvvvvvvvvvvvvvvvvvvvvvvvvv",
"vvvvvvvvvvvvvvvvvvvvvvvvvvvvO:;%Ovvvfvvkvkvvfvv@sgghhw6hrty...ytrh6whhggs@vvvvvvvvvvvvvvO%;:Ovvvvvvvvvvvvvvvvvvvvvvvvvvvvvvvvvvv",
"vvvvvvvvvvvvvvvvvvvvvvvvvvvvO:%;Ovvvkvkvvvkkvkv@sgghzzx6htu...uth6xzzhggs@vvvvvvvvvvvvvvO;%:Ovvvvvvvvvvvvvvvvvvvvvvvvvvvvvvvvvvv",
"vvvvvvvvvvvvvvvvvvvvvvvvvvvvvO;&Ovvvvkvvvvlvvvk@ssgghhzc6hyu.uyh6czhhggss@vvvvvvvvvvvvvvO&;Ovvvvvvvvvvvvvvvvvvvvvvvvvvvvvvvvvvvv",
"vvvvvvvvvvvvvvvvvvvvvvvvvvvvvO;&Ovvvvkvvvlllvvk@wsss96hzcwhyuyhwczh69sssw@vvvvvvvvvvvvvvO&;Ovvvvvvvvvvvvvvvvvvvvvvvvvvvvvvvvvvvv",
"vvvvvvvvvvvvvvvvvvvvv$vvvvvvvO&%Ovvvvkvvlvvlvvvk@sswgh@hzxwhhhwxzh@hgwss@vvvvvvvvvvvvvvvO%&Ovvvvvvvvvvvvvvvvvvvvvvvvvvvvvvvvvvvv",
"vvvvvvvvvvvvvvvvvvvvvv$vvvvvvvO;Ovvvvvllvvvvlvvk@w6gh+++hzxwgwxzh+++hg6w@vvvvvvvvvvvvvvvO;Ovvvvvvvvvv$vvvvvvvvvvvvvvvvvvvvvvvvvv",
"vvvvvvvvvvvvvvvvvvvvvv$$vvvvvvO;&Ovvvvllvvvvlvkvv@hh+>>>+hzhghzh+>>>+hh@vvvvvvvvvvvvvvvO&;Ovvvvvvvv$$vvvvvvvvvvvvvvvvvvvvvvvvvvv",
"vvvvvvvvvvvvvvvvvvvvvv$d$vvvvvvO&Ovvvvlvvvvvlvkv@hh+2222>+hhghh+>2222+hh@vvvvvvvvvvvvvvO&Ovvvvvvvv$$vvvvvvvvvvvvvvvvvvvvvvvvvvvv",
"vvvvvvvvvvvvvvvvvvvvvvv$j$vvvvvvO&Ovvvlvvvvvvlvv@hz+88822>+6g6+>22888+zh@vvvvvvvvvvvvvO&Ovvvvvvv$$q$vvvvvvvvvvvvvvvvvvvvvvvvvvvv",
"vvvvvvvvvvvvvvvvvvvvvvv$dj$vvvvvvO&Ovvvlvvvvvlvv@hzx++082+zhghz+280++xzh@vvvvv$vvvvvvO&Ovvvvvv$$qq$vvvvvvvvvvvvvvvvvvvvvvvvvvvvv",
"vvvvvvvvvvvvvvvvvvvvvvv$qdj$$$vvvvOOOOvlvvvlllvvv@hzxc+++xzhghzx+++cxzh@vvvv$$vvvvvOOOOvvvvv$$jdqq$vvvvvvvvvvvvvvvvvvvvvvvvvvvvv",
"vvvvvvvvvvvvvvvvvvvvvvvv$qddjj$$vvvvvvvlvvlvvvkvvv@hzzxxzzhggghzzxxzzh@vv$$$d$vvvvvvvvvvv$$$jddqq$vvvvvvvvvvvvvvvvvvvvvvvvvvvvvv",
"vvvvvvvvvvvvvvvvvvvvvvvv$qqqdddj$$vvvvvlvlvvvvkvv@h66hhhhs6g6g6shhhh66h@$ddd$vvvvvvvvv$$$jjdddqq7$vvvvvvvvvvvvvvvvvvvvvvvvvvvvvv",
"vvvvvvvvvvvvvvvvvvvvvvvvv$qqqq4ddj$$vvvlvlvvvvkv@hzxz666s6x6z6x6s666zxzh@q#$vvvvvvvvv$djdd44qqq77$vvvvvvvvvvvvvvvvvvvvvvvvvvvvvv",
"vvvvvvvvvvvvvvvvvvvvvvvvv$qdq7q44ddd$$vvlvvvvvk@zxxxz@zx6zh@h@hz6xz@zxxxz@ vvvvvvvvvv$444477777$$vvvvvvvvvvvvvvvvvvvvvvvvvvvvvvv",
"vvvvvvvvvvvvvvvvvvvvvvvvvv$qd#7qq4dddd$vlvvvvvv@xccz@xxz@h@=@=@h@zxx@zccx@,  vvvvvv  ,#qqqqq$$$vvvvvvvvvvvvvvvvvvvvvvvvvvvvvvvvv",
"vvvvvvvvvvvvvvvvvvvvvvvvvv$7q#77qq444#, lvvvvk@zxxz@@zx@=@@==X@@=@xz@@zxxz@,,      5,,#qddq$vvvvvvvvvvvvvvvvvvvvvvvvvvvvvvvvvvvv",
"vvvvvvvvvvvvvvvvvvvvvvvvvvv$7#$77qqq#X-,l   l @hzz@=@hz@-@@-=X@@-@zh@=@zzh@-,,,-X55,,#qddq$vvvvvvvvvvvvvvvvvvvvvvvvvvvvvvvvvvvvv",
"vvvvvvvvvvvvvvvvvvvvvvvvvvv$7$v$77qq#-X-l-,l,5@hhz@=@h@-X-@-X-@-X-@h@=@zhh@XX-XX5,,,-#ddq$vvvvvvvvvvvvvvvvvvvvvvvvvvvvvvvvvvvvvv",
"vvvvvvvvvvvvvvvvvvvvvvvvvvvv$$vv$77qq#-Xl-l,,,@gh@=-@g@-,---X---X-@g@-=@hg@,555,,,,--#qq$vvvvvvvvvvvvvvvvvvvvvvvvvvvvvvvvvvvvvvv",
"vvvvvvvvvvvvvvvvvvvvvvvvvvvvvv$vv$$77q#,lXl--,@gh@=-@s@,,--X-,,,-X@s@-=@hg@,,,------#q7$vvvvvvvvvvvvvvvvvvvvvvvvvvvvvvvvvvvvvvvv",
"vvvvvvvvvvvvvvvvvvvvvvvvvvvvvvvvvvv$77#,,lXX--@gg@X-,@@,--X,,5555,@@,--@gg@,----XXXX#7$vvvvvvvvvvvvvvvvvvvvvvvvvvvvvvvvvvvvvvvvv",
"vvvvvvvvvvvvvvvvvvvvvvvvvvvvvvvvvvvv$77#,k,55,,@g@--,,@---,,,,,,55@X,--@g@,---XX--##q$vvvvvvvvvvvvvvvvvvvvvvvvvvvvvvvvvvvvvvvvvv",
"vvvvvvvvvvvvvvvvvvvvvvvvvvvvvvvvvvvvv$$#,k,,,kk@sg@------,XXXXX-,55,X,@gs@--XX,,-#qq7$vvvvvvvvvvvvvvvvvvvvvvvvvvvvvvvvvvvvvvvvvv",
"vvvvvvvvvvvvvvvvvvvvvvvvvvvvvvvvvvvvvvv  k ,k,,@ss@--X-,,X=====X-,55-,@ss@-X,,--#777$vvvvvvvvvvvvvvvvvvvvvvvvvvvvvvvvvvvvvvvvvvv",
"vvvvvvvvvvvvvvvvvvvvvvvvvvvvvvvvvvvvvvvvvkvk -,,@ss@X-,5X=-----=X-,,,@ss@-,,,--#77$$$vvvvvvvvvvvvvvvvvvvvvvvvvvvvvvvvvvvvvvvvvvv",
"vvvvvvvvvvvvvvvvvvvvvvvvvvvvvvvvvvvvvvvvvkkvv --,@w@X,5X=-------=X-,,@w@,5,,X--#$$vvvvvvvvvvvvvvvvvvvvvvvvvvvvvvvvvvvvvvvvvvvvvv",
"vvvvvvvvvvvvvvvvvvvvvvvvvvvvvvvvvvvvvvvvvkkvv -X,,@w@,,X--,,,,,--X--@w@,555,-X$$veevvvvvvvvvvvvvvvvvvvvvvvvvvvvvvvvvvvvvvvvvvvvv",
"vvvvvvvvvvvvvvvvvvvvvvvvvvvvvvvvvvvvvvvvvkvv$##,5-,@w@X--,,,,,,,--X@w@,,555,- veevvfvvvvvvvvvvvvvvvvvvvvvvvvvvvvvvvvvvvvvvvvvvvv",
"vvvvvvvvvvvvvvvvvvvvvvvvvvvvvvvvvvvvvvvvvk$$dq#,-X5,@@X-,,,,5,,,,-X@@--,,555,- vvvfvkvvvvvvvvvvvvvvvvvvvvvvvvvvvvvvvvvvvvvvvvvvv",
"vvvvvvvvvvvvvvvvvvvvvvvvvvvvvvvvvvvvvvvv$kddq#,-X5,-X@-,,,,555,,,,-@XX---,555, vffvvvkvvvvvvvvvvvvvvvvvvvvvvvvvvvvvvvvvvvvvvvvvv",
"vvvvvvvvvvvvvvvvvvvvvvvvvvvvvvvvvvvvvv$$dkdq#--X,,-X=X@,,,55555,,,@X==X---,55,- vvvvkvkvvvvvvvvvvvvvvvvvvvvvvvvvvvvvvvvvvvvvvvvv",
"vvvvvvvvvvvvvvvvvvvvvvvvvvvvvvv$$$$$$$jddfqq#XX,,-X==X,,,55yuy55,,,X===#####-5,- vkkvvvkvvvvvvvvvvvvvvvvvvvvvvvvvvvvvvvvvvvvvvvv",
"vvvvvvvvvvvvvvvvvvvvvvvvvvvvvvvvv$$jjjddqfq#----  ===X,,55yu,uy5,,,X====$$7q##,,-$vvvvvvkkvvvvvvvvvvvvvvvvvvvvvvvvvvvvvvvvvvvvvv",
"vvvvvvvvvvvvvvvvvvvvvvvvvvvvvvvvvvv$$$$$$f#---#$v ===X,,55u,5,u55,,X=== ve$7qd###j$vvvkkvvkvvvvvvvvvvvvvvvvvvvvvvvvvvvvvvvvvvvvv",
"vvvvvvvvvvvvvvvvvvvvvvvvvvvvvvvvvvvvvvvvf,--##$vv ===X,,55yu5uy55,,X=== vev$7qqdddj$kkvvvvvkvvvvvvvvvvvvvvvvvvvvvvvvvvvvvvvvvvvv",
"vvvvvvvvvvvvvvvvvvvvvvvvvvvvvvvvvvvvvvv$####7$vvv ==X,,y555yuy555y,,X== vevv$7qqdddd$$vvvvvvkkvvvvvvvvvvvvvvvvvvvvvvvvvvvvvvvvvv",
"vvvvvvvvvvvvvvvvvvvvvvvvvvvvvvvvvvvvv$$dqq7$$vvvv ==X,,-yu55555uy-,,X== vevvv$$7qqqqqq$$vvkkvvllvvvvvvvvvvvvvvvvvvvvvvvvvvvvvvvv",
"vvvvvvvvvvvvvvvvvvvvvvvvvvvvvvvvvvvv$ddq7$$vvvvv ===X,,5,yu555uy-,,,X=== vfvvvv$$$$$77qq$$vvvvvvlvvvvvvvvvvvvvvvvvvvvvvvvvvvvvvv",
"vvvvvvvvvvvvvvvvvvvvvvvvvvvvvvvvvv$$qq7$$vvvvvvv =-=X,,55,ya5ay,55,,X=== vfffffvvfvv$$$7qq$$vvvvvlkvvvvvvvvvvvvvvvvvvvvvvvvvvvvv",
"vvvvvvvvvvvvvvvvvvvvvvvvvvvvvvv$$$qq7$$vvvvvv$vv =-=X,,555,yay,555,,X=-= vfvvvvvvvfffff$$$qq$$vvvvvkkkvvvvvvvvvvvvvvvvvvvvvvvvvv",
"vvvvvvvvvvvvvvvvvvvvvvvvvvvv$$$777$$$vvvvvvvvv$$ =-=X,,555yayay555,,X=-= vfvvvvvvfkvvvvvvv$$$$$vvvvvvvkkfvvvvvvvvvvvvvvvvvvvvvvv",
"vvvvvvvvvvvvvvvvvvvvvvvvvv$$$$$$$$vvvvvvvvvvvv$d --=X,,55yay,yay55,,X=-= vfvvvvvvkvkvvvvvvvvvvvvvvvvkvvvvffvvvvvvvvvvvvvvvvvvvvv",
"vvvvvvvvvvvvvvvvvvvvvvvvvvvvvvvvvvvvvvvv$vvvvvv =--=X,,5yay,5,yay5,,X=-== vfvvvvkvvvlvvvvvvvvvvvvvvkvvvvvvvvvvvvvvvvvvvvvvvvvvvv",
"vvvvvvvvvvvvvvvvvvvvvvvvvvvvvvvvvvvvvvvvv$$vvvv =--=X,,yuy,555,yuy,,X=-== vffkkkvvvvlllvvvvvvvvvvkkvvvvvvvvvvvvvvvvvvvvvvvvvvvvv",
"vvvvvvvvvvvvvvvvvvvvvvvvvvvvvvvvvvvvvvvvv$j$vvv =--=X,yyya55555ayyy,X=--= vfvvvvvvvlvlvllllllllkkvvvvvvvvvvvvvvvvvvvvvvvvvvvvvvv",
"vvvvvvvvvvvvvvvvvvvvvvvvvvvvvvvvvvvvvvvvvv$j$$$ =--=X,,,yu55555uy,-,X=--= vvkvvvvvvlvvlvvvvvvvvvvvvvvvvvvvvvvvvvvvvvvvvvvvvvvvvv",
"vvvvvvvvvvvvvvvvvvvvvvvvvvvvvvvvvvvvvvvvvv$dddd =--=X,,5,ya555ay,5,,X=--= vvkvvvvvvlvvvlvvvvvvvvvvvvvvvvvvvvvvvvvvvvvvvvvvvvvvvv",
"vvvvvvvvvvvvvvvvvvvvvvvvvvvvvvvvvvvvvvvvvvv$qq ==-=X,,y55yu555uy55y,,X=-== vvkv$vvvlvvvvlvvvvvvvvvvvvvvvvvvvvvvvvvvvvvvvvvvvvvvv",
"vvvvvvvvvvvvvvvvvvvvvvvvvvvvvvvvvvvvvvvvvvvv$$ ==-=X,yuy5,ya5ay,5yuy,X=-== vvk$$vvlvvvvvvlvvvvvvvvvvvvvvvvvvvvvvvvvvvvvvvvvvvvvv",
"vvvvvvvvvvvvvvvvvvvvvvvvvvvvvvvvvvvvvvvvvvvvvv ==-=X,-y,55yu5uy55,y-,X=-=o $$kj$vvkvvvvvvvkvvvvvvvvvvvvvvvvvvvvvvvvvvvvvvvvvvvvv",
"vvvvvvvvvvvvvvvvvvvvvvvvvvvvvvvvvvvvvvvv$vvvv1 ==-=X,,-555,yuy,555-,,X=-=o#dddkvkkvvvvvvvvvkvvvvvvvvvvvvvvvvvvvvvvvvvvvvvvvvvvvv",
"vvvvvvvvvvvvvvvvvvvvvvvvvvvvvvvvvvvvvvvvv$$111 o===X,,,55y5yuy,y55,,,X=-=o#dq$vkvvvvvvvvvvvvkvvvvvvvvvvvvvvvvvvvvvvvvvvvvvvvvvvv",
"vvvvvvvvvvvvvvvvvvvvvvvvvvvvvvvvvvvvvvvvv$j$$11 ===X-,,5yuy,y,yuy5,,-X=-=#dq$11fvvvvvvvvvvvvvfvvvvvvvvvvvvvvvvvvvvvvvvvvvvvvvvvv",
"vvvvvvvvvvvvvvvvvvvvvvvvvvvvvvvvvvvvvvvvv1$dd$$ o==X-,,5,y,5y5,y,5,,-X=-=#q$1111fvvvvvvvvvvvvvffvvvvvvvvvvvvvvvvvvvvvvvvvvvvvvvv",
"vvvvvvvvvvvvvvvvvvvvvvvvvvvvvvvvvvvvvvvv111$jdd o=##--,,5555y55,5,,--X==oX#d$$1111vvvvvvvvvvvvvvvvvvvvvvvvvvvvvvvvvvvvvvvvvvvvvv",
"vvvvvvvvvvvvvvvvvvvvvvvvvvvvvvvvvvvvvvv11111$qq o=#j##-,,,55,555,,---##=o#ddqq$1111vvvvvvvvvvvvvvvvvvvvvvvvvvvvvvvvvvvvvvvvvvvvv",
"vvvvvvvvvvvvvvvvvvvvvvvvvvvvvvvvvvvvvvv111311$77 o=#dj##,,,,,,,,,--##d#oX#q$$$11111vvvvvvvvvvvvvvvvvvvvvvvvvvvvvvvvvvvvvvvvvvvvv",
"vvvvvvvvvvvvvvvvvvvvvvvvvvvvvvvvvvvvvvv1133311$$ o=#qqdj#-,,,,,,--#jdq#oX$$11111111vvvvvvvvvvvvvvvvvvvvvvvvvvvvvvvvvvvvvvvvvvvvv",
"vvvvvvvvvvvvvvvvvvvvvvvvvvvvvvvvvvvvvvv111311111 oo=##qqd#-,,,,--#ddq#oo 113111111vvvvvvvvvvvvvvvvvvvvvvvvvvvvvvvvvvvvvvvvvvvvvv",
"vvvvvvvvvvvvvvvvvvvvvvvvvvvvvvvvvvvvvvvv111111111    ###q#       #d##XX 113331111vvvvvvvvvvvvvvvvvvvvvvvvvvvvvvvvvvvvvvvvvvvvvvv",
"vvvvvvvvvvvvvvvvvvvvvvvvvvvvvvvvvvvvvvvvv11111111111$ddq#q$11111$d#qd#$111131111vvvvvvvvvvvvvvvvvvvvvvvvvvvvvvvvvvvvvvvvvvvvvvvv",
"vvvvvvvvvvvvvvvvvvvvvvvvvvvvvvvvvvvvvvvvvvv11111111$ddqq$$$1111$7qq$qqq$1111111vvvvvvvvvvvvvvvvvvvvvvvvvvvvvvvvvvvvvvvvvvvvvvvvv",
"vvvvvvvvvvvvvvvvvvvvvvvvvvvvvvvvvvvvvvvvvvvvv11111$$$$$$1111111$$$$1$$$1111111vvvvvvvvvvvvvvvvvvvvvvvvvvvvvvvvvvvvvvvvvvvvvvvvvv",
"vvvvvvvvvvvvvvvvvvvvvvvvvvvvvvvvvvvvvvvvvvvvvvv11111111111111111111111111111vvvvvvvvvvvvvvvvvvvvvvvvvvvvvvvvvvvvvvvvvvvvvvvvvvvv",
"vvvvvvvvvvvvvvvvvvvvvvvvvvvvvvvvvvvvvvvvvvvvvvvvv111111111111111111111111vvvvvvvvvvvvvvvvvvvvvvvvvvvvvvvvvvvvvvvvvvvvvvvvvvvvvvv",
"vvvvvvvvvvvvvvvvvvvvvvvvvvvvvvvvvvvvvvvvvvvvvvvvvvv1111111111111111111vvvvvvvvvvvvvvvvvvvvvvvvvvvvvvvvvvvvvvvvvvvvvvvvvvvvvvvvvv",
"vvvvvvvvvvvvvvvvvvvvvvvvvvvvvvvvvvvvvvvvvvvvvvvvvvvvvv1111111111111vvvvvvvvvvvvvvvvvvvvvvvvvvvvvvvvvvvvvvvvvvvvvvvvvvvvvvvvvvvvv",
"vvvvvvvvvvvvvvvvvvvvvvvvvvvvvvvvvvvvvvvvvvvvvvvvvvvvvvvvvvvvvvvvvvvvvvvvvvvvvvvvvvvvvvvvvvvvvvvvvvvvvvvvvvvvvvvvvvvvvvvvvvvvvvvv",
"vvvvvvvvvvvvvvvvvvvvvvvvvvvvvvvvvvvvvvvvvvvvvvvvvvvvvvvvvvvvvvvvvvvvvvvvvvvvvvvvvvvvvvvvvvvvvvvvvvvvvvvvvvvvvvvvvvvvvvvvvvvvvvvv",
"vvvvvvvvvvvvvvvvvvvvvvvvvvvvvvvvvvvvvvvvvvvvvvvvvvvvvvvvvvvvvvvvvvvvvvvvvvvvvvvvvvvvvvvvvvvvvvvvvvvvvvvvvvvvvvvvvvvvvvvvvvvvvvvv",
"vvvvvvvvvvvvvvvvvvvvvvvvvvvvvvvvvvvvvvvvvvvvvvvvvvvvvvvvvvvvvvvvvvvvvvvvvvvvvvvvvvvvvvvvvvvvvvvvvvvvvvvvvvvvvvvvvvvvvvvvvvvvvvvv",
"vvvvvvvvvvvvvvvvvvvvvvvvvvvvvvvvvvvvvvvvvvvvvvvvvvvvvvvvvvvvvvvvvvvvvvvvvvvvvvvvvvvvvvvvvvvvvvvvvvvvvvvvvvvvvvvvvvvvvvvvvvvvvvvv",
"vvvvvvvvvvvvvvvvvvvvvvvvvvvvvvvvvvvvvvvvvvvvvvvvvvvvvvvvvvvvvvvvvvvvvvvvvvvvvvvvvvvvvvvvvvvvvvvvvvvvvvvvvvvvvvvvvvvvvvvvvvvvvvvv",
"vvvvvvvvvvvvvvvvvvvvvvvvvvvvvvvvvvvvvvvvvvvvvvvvvvvvvvvvvvvvvvvvvvvvvvvvvvvvvvvvvvvvvvvvvvvvvvvvvvvvvvvvvvvvvvvvvvvvvvvvvvvvvvvv",
"vvvvvvvvvvvvvvvvvvvvvvvvvvvvvvvvvvvvvvvvvvvvvvvvvvvvvvvvvvvvvvvvvvvvvvvvvvvvvvvvvvvvvvvvvvvvvvvvvvvvvvvvvvvvvvvvvvvvvvvvvvvvvvvv",
"vvvvvvvvvvvvvvvvvvvvvvvvvvvvvvvvvvvvvvvvvvvvvvvvvvvvvvvvvvvvvvvvvvvvvvvvvvvvvvvvvvvvvvvvvvvvvvvvvvvvvvvvvvvvvvvvvvvvvvvvvvvvvvvv",
"vvvvvvvvvvvvvvvvvvvvvvvvvvvvvvvvvvvvvvvvvvvvvvvvvvvvvvvvvvvvvvvvvvvvvvvvvvvvvvvvvvvvvvvvvvvvvvvvvvvvvvvvvvvvvvvvvvvvvvvvvvvvvvvv",
"vvvvvvvvvvvvvvvvvvvvvvvvvvvvvvvvvvvvvvvvvvvvvvvvvvvvvvvvvvvvvvvvvvvvvvvvvvvvvvvvvvvvvvvvvvvvvvvvvvvvvvvvvvvvvvvvvvvvvvvvvvvvvvvv",
"vvvvvvvvvvvvvvvvvvvvvvvvvvvvvvvvvvvvvvvvvvvvvvvvvvvvvvvvvvvvvvvvvvvvvvvvvvvvvvvvvvvvvvvvvvvvvvvvvvvvvvvvvvvvvvvvvvvvvvvvvvvvvvvv",
"vvvvvvvvvvvvvvvvvvvvvvvvvvvvvvvvvvvvvvvvvvvvvvvvvvvvvvvvvvvvvvvvvvvvvvvvvvvvvvvvvvvvvvvvvvvvvvvvvvvvvvvvvvvvvvvvvvvvvvvvvvvvvvvv",
"vvvvvvvvvvvvvvvvvvvvvvvvvvvvvvvvvvvvvvvvvvvvvvvvvvvvvvvvvvvvvvvvvvvvvvvvvvvvvvvvvvvvvvvvvvvvvvvvvvvvvvvvvvvvvvvvvvvvvvvvvvvvvvvv",
"vvvvvvvvvvvvvvvvvvvvvvvvvvvvvvvvvvvvvvvvvvvvvvvvvvvvvvvvvvvvvvvvvvvvvvvvvvvvvvvvvvvvvvvvvvvvvvvvvvvvvvvvvvvvvvvvvvvvvvvvvvvvvvvv",
"vvvvvvvvvvvvvvvvvvvvvvvvvvvvvvvvvvvvvvvvvvvvvvvvvvvvvvvvvvvvvvvvvvvvvvvvvvvvvvvvvvvvvvvvvvvvvvvvvvvvvvvvvvvvvvvvvvvvvvvvvvvvvvvv",
"vvvvvvvvvvvvvvvvvvvvvvvvvvvvvvvvvvvvvvvvvvvvvvvvvvvvvvvvvvvvvvvvvvvvvvvvvvvvvvvvvvvvvvvvvvvvvvvvvvvvvvvvvvvvvvvvvvvvvvvvvvvvvvvv",
"vvvvvvvvvvvvvvvvvvvvvvvvvvvvvvvvvvvvvvvvvvvvvvvvvvvvvvvvvvvvvvvvvvvvvvvvvvvvvvvvvvvvvvvvvvvvvvvvvvvvvvvvvvvvvvvvvvvvvvvvvvvvvvvv",
"vvvvvvvvvvvvvvvvvvvvvvvvvvvvvvvvvvvvvvvvvvvvvvvvvvvvvvvvvvvvvvvvvvvvvvvvvvvvvvvvvvvvvvvvvvvvvvvvvvvvvvvvvvvvvvvvvvvvvvvvvvvvvvvv",
"vvvvvvvvvvvvvvvvvvvvvvvvvvvvvvvvvvvvvvvvvvvvvvvvvvvvvvvvvvvvvvvvvvvvvvvvvvvvvvvvvvvvvvvvvvvvvvvvvvvvvvvvvvvvvvvvvvvvvvvvvvvvvvvv",
"vvvvvvvvvvvvvvvvvvvvvvvvvvvvvvvvvvvvvvvvvvvvvvvvvvvvvvvvvvvvvvvvvvvvvvvvvvvvvvvvvvvvvvvvvvvvvvvvvvvvvvvvvvvvvvvvvvvvvvvvvvvvvvvv",
"vvvvvvvvvvvvvvvvvvvvvvvvvvvvvvvvvvvvvvvvvvvvvvvvvvvvvvvvvvvvvvvvvvvvvvvvvvvvvvvvvvvvvvvvvvvvvvvvvvvvvvvvvvvvvvvvvvvvvvvvvvvvvvvv"
};
